<svg xmlns="http://www.w3.org/2000/svg" width="141" height="20" viewBox="0 0 141 20"><g fill="#FFE047" fill-rule="evenodd" transform="translate(.5)"><polygon points="10 15 4.122 18.09 5.245 11.545 .489 6.91 7.061 5.955 10 0 12.939 5.955 19.511 6.91 14.755 11.545 15.878 18.09"/><polygon points="40 15 34.122 18.09 35.245 11.545 30.489 6.91 37.061 5.955 40 0 42.939 5.955 49.511 6.91 44.755 11.545 45.878 18.09"/><polygon points="70 15 64.122 18.09 65.245 11.545 60.489 6.91 67.061 5.955 70 0 72.939 5.955 79.511 6.91 74.755 11.545 75.878 18.09"/><polygon points="100 15 94.122 18.09 95.245 11.545 90.489 6.91 97.061 5.955 100 0 102.939 5.955 109.511 6.91 104.755 11.545 105.878 18.09"/><polygon points="130 15 124.122 18.09 125.245 11.545 120.489 6.91 127.061 5.955 130 0 132.939 5.955 139.511 6.91 134.755 11.545 135.878 18.09"/></g></svg>