<svg xmlns="http://www.w3.org/2000/svg" width="26" height="29" viewBox="0 0 26 29">
  <path fill="#FFFFFF" fill-rule="evenodd" d="M39.609375,31.3116023 L31.875,39.0459773 L31.875,19.1826923 C31.875,18.6748748 31.6894575,18.2354273 31.3183575,17.8643348 C30.947265,17.4932348 30.5078175,17.3076923 30,17.3076923 C29.4921825,17.3076923 29.052735,17.4932348 28.6816425,17.8643348 C28.3105425,18.2354273 28.125,18.6748748 28.125,19.1826923 L28.125,39.0459773 L20.390625,31.3116023 C20.0390625,30.9209723 19.599615,30.7256573 19.0722675,30.7256573 C18.54492,30.7256573 18.1054725,30.9209723 17.75391,31.3116023 C17.36328,31.6631648 17.167965,32.1026123 17.167965,32.6299598 C17.167965,33.1573073 17.36328,33.5967548 17.75391,33.9483173 L28.359375,44.5537823 C28.59375,44.7881648 28.85742,44.9444123 29.1503925,45.0225323 C29.4433575,45.1006598 29.7265575,45.1006598 30,45.0225323 C30.2734425,45.1006598 30.5566425,45.1006598 30.8496075,45.0225323 C31.14258,44.9444123 31.40625,44.7881648 31.640625,44.5537823 L42.24609,33.9483173 C42.63672,33.5967548 42.832035,33.1573073 42.832035,32.6299598 C42.832035,32.1026123 42.63672,31.6631648 42.24609,31.3116023 C41.8945275,30.9209723 41.45508,30.7256573 40.9277325,30.7256573 C40.400385,30.7256573 39.9609375,30.9209723 39.609375,31.3116023 Z" transform="translate(-17 -17)"/>
</svg>
