<svg xmlns="http://www.w3.org/2000/svg" width="42" height="42" viewBox="0 0 42 42">
  <path fill="#FFFFFF" d="M35.148438,6.101562 C31.138001,2.033834 26.296903,0 20.625,0 C14.953097,0 10.097676,2.019511 6.058594,6.058594 C2.019511,10.097676 0,14.953097 0,20.625 C0,26.296903 2.019511,31.152324 6.058594,35.191406 C10.097676,39.230489 14.953097,41.25 20.625,41.25 C26.296903,41.25 31.152324,39.230489 35.191406,35.191406 C39.230489,31.152324 41.25,26.296903 41.25,20.625 C41.25,14.953097 39.216166,10.111999 35.148438,6.101562 Z M33.257812,33.257812 C29.763003,36.752622 25.552108,38.5 20.625,38.5 C15.697892,38.5 11.486997,36.752622 7.992188,33.257812 C4.497378,29.763003 2.75,25.552108 2.75,20.625 C2.75,15.697892 4.497378,11.486997 7.992188,7.992188 C11.486997,4.497378 15.697892,2.75 20.625,2.75 C25.552108,2.75 29.763003,4.497378 33.257812,7.992188 C36.752622,11.486997 38.5,15.697892 38.5,20.625 C38.5,25.552108 36.752622,29.763003 33.257812,33.257812 Z M29.734375,19.765625 L19.164062,11.34375 C18.419267,10.77083 17.703128,10.77083 17.015625,11.34375 L16.929688,11.34375 C16.643228,11.572918 16.5,11.859373 16.5,12.203125 L16.5,28.960938 C16.5,29.304689 16.671873,29.61979 17.015625,29.90625 C17.703128,30.421878 18.419267,30.421878 19.164062,29.90625 L29.820312,21.484375 C30.106772,21.255207 30.25,20.968752 30.25,20.625 C30.25,20.281248 30.106772,19.994793 29.820312,19.765625 C29.820312,19.765625 29.791667,19.765625 29.734375,19.765625 Z"/>
</svg>
