<svg xmlns="http://www.w3.org/2000/svg" width="45" height="44" viewBox="0 0 45 44">
  <path fill="#FFFFFF" fill-rule="evenodd" d="M1306.58245,37.5546871 C1310.97076,41.8515839 1316.26593,44 1322.46809,44 C1328.67024,44 1333.96541,41.8515839 1338.35372,37.5546871 C1342.74204,33.2577932 1344.93617,28.0729455 1344.93617,22 C1344.93617,15.9270545 1342.74204,10.7422068 1338.35372,6.4453166 C1333.96541,2.14841702 1328.67024,0 1322.46809,0 C1316.26593,0 1310.97076,2.14841702 1306.58245,6.4453166 C1302.19413,10.7422068 1300,15.9270545 1300,22 C1300,28.0729455 1302.19413,33.2577932 1306.58245,37.5546871 Z M1308.5133,8.42187149 C1312.37502,4.64060511 1317.02657,2.75 1322.46809,2.75 C1327.9096,2.75 1332.54652,4.6262817 1336.37898,8.37891064 C1340.21146,12.1315302 1342.12766,16.6718528 1342.12766,22 C1342.12766,27.3281472 1340.21146,31.8684698 1336.37898,35.621094 C1332.54652,39.3737164 1327.9096,41.25 1322.46809,41.25 C1317.02657,41.25 1312.38965,39.3737164 1308.55718,35.621094 C1304.72472,31.8684698 1302.80851,27.3281472 1302.80851,22 C1302.80851,16.6718528 1304.71009,12.1458536 1308.5133,8.42187149 Z M1314.83245,29.4765643 C1315.41755,29.9921881 1316.09042,30.25 1316.85106,30.25 C1317.61171,30.25 1318.26995,29.9778647 1318.8258,29.433594 C1319.38165,28.8893234 1319.65957,28.2447983 1319.65957,27.5 L1319.65957,16.5 C1319.65957,15.7552017 1319.38165,15.1106766 1318.8258,14.566406 C1318.26995,14.0221353 1317.61171,13.75 1316.85106,13.75 C1316.09042,13.75 1315.43218,14.0221353 1314.87633,14.566406 C1314.32048,15.1106766 1314.04255,15.7552017 1314.04255,16.5 L1314.04255,27.5 C1314.04255,28.2447983 1314.30585,28.9036468 1314.83245,29.4765643 Z M1326.06649,29.4765643 C1326.65159,29.9921881 1327.32446,30.25 1328.08511,30.25 C1328.84575,30.25 1329.50399,29.9778647 1330.05984,29.433594 C1330.61569,28.8893234 1330.89362,28.2447983 1330.89362,27.5 L1330.89362,16.5 C1330.89362,15.7552017 1330.61569,15.1106766 1330.05984,14.566406 C1329.50399,14.0221353 1328.84575,13.75 1328.08511,13.75 C1327.32446,13.75 1326.66622,14.0221353 1326.11037,14.566406 C1325.55452,15.1106766 1325.2766,15.7552017 1325.2766,16.5 L1325.2766,27.5 C1325.2766,28.2447983 1325.53989,28.9036468 1326.06649,29.4765643 Z" transform="translate(-1300)"/>
</svg>
