<?xml version="1.0" encoding="UTF-8" standalone="no"?><!DOCTYPE svg PUBLIC "-//W3C//DTD SVG 1.1//EN" "http://www.w3.org/Graphics/SVG/1.1/DTD/svg11.dtd"><svg width="100%" height="100%" viewBox="0 0 24 24" version="1.1" xmlns="http://www.w3.org/2000/svg" xmlns:xlink="http://www.w3.org/1999/xlink" xml:space="preserve" xmlns:serif="http://www.serif.com/" style="fill-rule:evenodd;clip-rule:evenodd;stroke-linejoin:round;stroke-miterlimit:2;"><g><path d="M24,21.055l0,1.025c0,1.06 -0.86,1.92 -1.92,1.92l-20.16,0c-1.06,0 -1.92,-0.86 -1.92,-1.92l0,-1.025l2,0l0,0.145c0,0.442 0.358,0.8 0.8,0.8l18.4,0c0.442,0 0.8,-0.358 0.8,-0.8l0,-0.145l2,0Zm-22,-2l-2,0l0,-1.891l2,0l0,1.891Zm22,0l-2,0l0,-1.891l2,0l0,1.891Zm-22,-3.891l-2,0l0,-2.109l2,0l0,2.109Zm22,0l-2,0l0,-2.109l2,0l0,2.109Zm-22,-4.109l-2,0l0,-2l2,0l0,2Zm22,0l-2,0l0,-2l2,0l0,2Zm-22,-4l-2,0l0,-1.883l2,0l0,1.883Zm22,0l-2,0l0,-1.883l2,0l0,1.883Zm-24,-3.883l0,-1.252c0,-1.06 0.86,-1.92 1.92,-1.92l20.16,0c1.06,0 1.92,0.86 1.92,1.92l0,1.252l-2,0l0,-0.372c0,-0.441 -0.358,-0.8 -0.8,-0.8l-18.4,0c-0.442,0 -0.8,0.359 -0.8,0.8l0,0.372l-2,0Z" style="fill:#555d66;"/><path d="M8,18.109l0,-11.992l10,5.977l-10,6.015Z" style="fill:#555d66;"/></g></svg>