<?xml version="1.0" encoding="UTF-8" standalone="no"?><!DOCTYPE svg PUBLIC "-//W3C//DTD SVG 1.1//EN" "http://www.w3.org/Graphics/SVG/1.1/DTD/svg11.dtd"><svg width="100%" height="100%" viewBox="0 0 24 24" version="1.1" xmlns="http://www.w3.org/2000/svg" xmlns:xlink="http://www.w3.org/1999/xlink" xml:space="preserve" xmlns:serif="http://www.serif.com/" style="fill-rule:evenodd;clip-rule:evenodd;stroke-linejoin:round;stroke-miterlimit:2;"><g><path d="M2,20l0,1.2c0,0.442 0.358,0.8 0.8,0.8l18.4,0c0.442,0 0.8,-0.358 0.8,-0.8l0,-1.2l2,0l0,2.08c0,1.06 -0.86,1.92 -1.92,1.92l-20.16,0c-1.06,0 -1.92,-0.86 -1.92,-1.92l0,-2.08l2,0Zm-2,-16l0,-2.08c0,-1.06 0.86,-1.92 1.92,-1.92l20.16,0c1.06,0 1.92,0.86 1.92,1.92l0,2.08l-2,0l0,-1.2c0,-0.441 -0.358,-0.8 -0.8,-0.8l-18.4,0c-0.442,0 -0.8,0.359 -0.8,0.8l0,1.2l-2,0Z" style="fill:#555d66;"/><rect x="8.833" y="15" width="8.333" height="2" style="fill:#555d66;"/><rect x="0" y="7" width="6" height="6" style="fill:#555d66;"/><rect x="20" y="13" width="4" height="4" style="fill:#555d66;"/><rect x="8" y="11" width="10" height="2" style="fill:#555d66;"/><rect x="9.667" y="7" width="6.667" height="1.857" style="fill:#555d66;"/></g></svg>