<svg viewBox="0 0 24 24" xmlns="http://www.w3.org/2000/svg" xml:space="preserve" style="fill-rule:evenodd;clip-rule:evenodd;stroke-linejoin:round;stroke-miterlimit:2"><path d="M22.08 0C23.14 0 24 .86 24 1.92v20.16c0 1.06-.86 1.92-1.92 1.92H1.92A1.92 1.92 0 0 1 0 22.08V1.92C0 .86.86 0 1.92 0h20.16Zm-.88 2H2.8a.8.8 0 0 0-.8.8v18.4a.8.8 0 0 0 .8.8h18.4a.8.8 0 0 0 .8-.8V2.8a.8.8 0 0 0-.8-.8Z" style="fill:#555d66"/><path d="M14 20H4v-2h10v2Zm2-6H4v-2h12v2Zm4-4H4V8h16v2Zm-8-4H4V4h8v2Z" style="fill:#555d66"/></svg>