<?xml version="1.0" encoding="UTF-8" standalone="no"?><!DOCTYPE svg PUBLIC "-//W3C//DTD SVG 1.1//EN" "http://www.w3.org/Graphics/SVG/1.1/DTD/svg11.dtd"><svg width="100%" height="100%" viewBox="0 0 24 24" version="1.1" xmlns="http://www.w3.org/2000/svg" xmlns:xlink="http://www.w3.org/1999/xlink" xml:space="preserve" xmlns:serif="http://www.serif.com/" style="fill-rule:evenodd;clip-rule:evenodd;stroke-linejoin:round;stroke-miterlimit:2;"><g><path d="M2,20l0,1.2c0,0.442 0.358,0.8 0.8,0.8l18.4,0c0.442,0 0.8,-0.358 0.8,-0.8l-0,-8.786l2,-0l-0,9.666c-0,1.06 -0.86,1.92 -1.92,1.92l-20.16,0c-1.06,0 -1.92,-0.86 -1.92,-1.92l-0,-2.08l2,0Zm-2,-8l-0,-10.08c-0,-1.06 0.86,-1.92 1.92,-1.92l20.16,0c1.06,0 1.92,0.86 1.92,1.92l-0,2.08l-2,0l-0,-1.2c-0,-0.441 -0.358,-0.8 -0.8,-0.8l-18.4,0c-0.442,0 -0.8,0.359 -0.8,0.8l-0,9.2l-2,-0Z" style="fill:#555d66;"/><path d="M11.001,12.999l0,-4.999l2,0l0,5l1.828,-1.829l1.415,1.415l-4.243,4.242l-4.243,-4.242l1.415,-1.415l1.828,1.828Z" style="fill:#555d66;"/></g></svg>