<?xml version="1.0" encoding="UTF-8" standalone="no"?>
<!DOCTYPE svg PUBLIC "-//W3C//DTD SVG 1.1//EN" "http://www.w3.org/Graphics/SVG/1.1/DTD/svg11.dtd">
<svg width="100%" height="100%" viewBox="0 0 24 24" version="1.1" xmlns="http://www.w3.org/2000/svg" xmlns:xlink="http://www.w3.org/1999/xlink" xml:space="preserve" xmlns:serif="http://www.serif.com/" style="fill-rule:evenodd;clip-rule:evenodd;stroke-linejoin:round;stroke-miterlimit:2;"><g transform="matrix(1,0,0,1,-72,-120)"><g transform="matrix(0.869565,0,0,0.990826,-416.522,-430.018)"><g transform="matrix(1.15,0,0,1.00926,-238.6,24.2407)"><g transform="matrix(1.14286,0,0,1.14286,-137.143,-93.4286)"><circle cx="739.5" cy="545.5" r="3.5" style="fill:rgb(85,93,102);"/></g><g transform="matrix(1,0,0,1,624,406)"><path d="M84.343,131.657L87.924,128.076C89.682,128.43 91.007,129.983 91.007,131.846L91.007,142L76.993,142C76.993,142 76.993,135.991 76.993,131.846C76.993,129.983 78.318,128.43 80.076,128.076L83.657,131.657L82.819,130L84,128.314L85.181,130L84.343,131.657Z" style="fill:rgb(85,93,102);"/></g><path d="M700,528L698.8,528C698.358,528 698,528.359 698,528.8L698,547.2C698,547.642 698.358,548 698.8,548L717.2,548C717.642,548 718,547.642 718,547.2L718,528.8C718,528.359 717.642,528 717.2,528L716,528L716,526L718.08,526C719.14,526 720,526.86 720,527.92L720,548.08C720,549.14 719.14,550 718.08,550L697.92,550C696.86,550 696,549.14 696,548.08L696,527.92C696,526.86 696.86,526 697.92,526L700,526L700,528Z" style="fill:rgb(85,93,102);"/></g></g></g></svg>
